<svg xmlns="http://www.w3.org/2000/svg" viewBox="0 0 900 360" role="img" aria-label="Passenger airplane">
  <defs>
    <linearGradient id="body" x1="90" y1="150" x2="800" y2="215" gradientUnits="userSpaceOnUse">
      <stop offset="0" stop-color="#f8fbff"/>
      <stop offset="0.36" stop-color="#d9e7f4"/>
      <stop offset="0.72" stop-color="#ffffff"/>
      <stop offset="1" stop-color="#b8cadb"/>
    </linearGradient>
    <linearGradient id="belly" x1="174" y1="214" x2="726" y2="242" gradientUnits="userSpaceOnUse">
      <stop offset="0" stop-color="#9db3c8"/>
      <stop offset="0.5" stop-color="#d9e7f4"/>
      <stop offset="1" stop-color="#849bae"/>
    </linearGradient>
    <linearGradient id="wing" x1="360" y1="162" x2="458" y2="326" gradientUnits="userSpaceOnUse">
      <stop offset="0" stop-color="#f3f8fd"/>
      <stop offset="0.42" stop-color="#b9cbdb"/>
      <stop offset="1" stop-color="#647c93"/>
    </linearGradient>
    <linearGradient id="tail" x1="116" y1="58" x2="210" y2="191" gradientUnits="userSpaceOnUse">
      <stop offset="0" stop-color="#eff7ff"/>
      <stop offset="1" stop-color="#7c95aa"/>
    </linearGradient>
    <linearGradient id="engine" x1="332" y1="219" x2="452" y2="268" gradientUnits="userSpaceOnUse">
      <stop offset="0" stop-color="#f8fbff"/>
      <stop offset="0.45" stop-color="#a9bdcf"/>
      <stop offset="1" stop-color="#435a70"/>
    </linearGradient>
    <filter id="softShadow" x="-10%" y="-20%" width="120%" height="150%">
      <feDropShadow dx="0" dy="16" stdDeviation="14" flood-color="#03101d" flood-opacity="0.38"/>
    </filter>
  </defs>
  <g filter="url(#softShadow)">
    <path d="M776 166c45 4 72 20 76 34 3 11-13 22-50 28-77 13-232 16-417 9-133-5-242-15-311-30-20-4-30-13-29-24 2-13 18-21 43-21 58 0 148 11 260 17 163 9 316-23 428-13Z" fill="url(#body)"/>
    <path d="M126 185c74 21 194 35 345 40 122 5 245 1 337-8-22 13-83 28-230 33-153 6-338-5-468-32-32-6-56-17-65-31 25-8 52-8 81-2Z" fill="url(#belly)" opacity="0.72"/>
    <path d="M376 196c22 6 62 12 100 15l-97 109c-10 12-28 17-44 12l-43-13 59-102c5-9 14-17 25-21Z" fill="url(#wing)"/>
    <g opacity="0.96">
      <ellipse cx="379" cy="245" rx="34" ry="20" fill="url(#engine)" transform="rotate(9 379 245)"/>
      <ellipse cx="379" cy="245" rx="19" ry="11" fill="#10283f" transform="rotate(9 379 245)"/>
      <ellipse cx="383" cy="244" rx="8" ry="5" fill="#dcebf6" opacity="0.35" transform="rotate(9 383 244)"/>
      <ellipse cx="445" cy="228" rx="28" ry="16" fill="url(#engine)" transform="rotate(6 445 228)"/>
      <ellipse cx="445" cy="228" rx="15" ry="9" fill="#10283f" transform="rotate(6 445 228)"/>
    </g>
    <path d="M432 179c32-7 61-8 88-5l-125-94c-13-10-31-12-46-5l-37 17 87 76c8 7 20 12 33 11Z" fill="url(#wing)" opacity="0.92"/>
    <path d="M139 164 86 57c-4-9 3-19 13-18l61 5c12 1 23 8 29 19l70 121c-48-4-89-11-120-20Z" fill="url(#tail)"/>
    <path d="M141 198 73 246c-10 7-7 23 5 26l56 13c13 3 27-1 37-10l86-75c-42 0-81-1-116-2Z" fill="#9fb3c5"/>
    <path d="M750 170c48 6 85 19 101 31-24 7-59 12-105 16 15-9 20-32 4-47Z" fill="#ecf4fb"/>
    <path d="M806 188c18 5 30 11 37 17-11 4-28 7-52 10 13-8 18-17 15-27Z" fill="#0b1f34" opacity="0.18"/>
    <g fill="#0a3150" opacity="0.82">
      <ellipse cx="255" cy="181" rx="8" ry="5"/>
      <ellipse cx="286" cy="184" rx="8" ry="5"/>
      <ellipse cx="317" cy="186" rx="8" ry="5"/>
      <ellipse cx="348" cy="188" rx="8" ry="5"/>
      <ellipse cx="379" cy="189" rx="8" ry="5"/>
      <ellipse cx="410" cy="190" rx="8" ry="5"/>
      <ellipse cx="441" cy="191" rx="8" ry="5"/>
      <ellipse cx="472" cy="192" rx="8" ry="5"/>
      <ellipse cx="503" cy="192" rx="8" ry="5"/>
      <ellipse cx="534" cy="191" rx="8" ry="5"/>
      <ellipse cx="565" cy="190" rx="8" ry="5"/>
      <ellipse cx="596" cy="189" rx="8" ry="5"/>
      <ellipse cx="627" cy="187" rx="8" ry="5"/>
    </g>
    <path d="M693 173c30-3 60-4 83-2 9 1 17 3 25 5-14 12-47 17-106 17-10 0-14-17-2-20Z" fill="#0a3150" opacity="0.75"/>
    <path d="M221 174c-7 11-7 25 2 36" stroke="#849bae" stroke-width="3" stroke-linecap="round" opacity="0.55"/>
    <path d="M676 179c6 12 6 24 0 36" stroke="#849bae" stroke-width="3" stroke-linecap="round" opacity="0.38"/>
    <path d="M158 54c9 11 45 75 71 126" stroke="#39c8f3" stroke-width="7" stroke-linecap="round" opacity="0.82"/>
    <path d="M119 201c87 19 231 29 403 30 126 0 232-5 291-16" stroke="#37c6ef" stroke-width="5" stroke-linecap="round" opacity="0.45"/>
    <path d="M360 319c27-22 73-73 116-107" stroke="#37c6ef" stroke-width="5" stroke-linecap="round" opacity="0.36"/>
  </g>
</svg>
